<svg width="64" height="34" viewBox="0 0 64 34" fill="none" xmlns="http://www.w3.org/2000/svg">
<path d="M1.46627e-05 0.384096C3.71201 0.128096 6.97602 9.53674e-05 9.79202 9.53674e-05C17.728 9.53674e-05 21.696 2.8001 21.696 8.4001C21.696 10.9921 21.024 13.2641 19.68 15.2161C18.976 16.2721 17.888 17.1201 16.416 17.7601C14.944 18.3681 13.168 18.6721 11.088 18.6721H3.98402V33.6001H1.46627e-05V0.384096ZM9.84001 0.480095C7.98401 0.480095 6.03202 0.592095 3.98402 0.816096V18.1921H11.088C15.6 18.0001 17.856 14.7681 17.856 8.4961C17.856 5.9361 17.184 3.9681 15.84 2.5921C14.496 1.1841 12.496 0.480095 9.84001 0.480095ZM62.3648 9.53674e-05C62.9728 0.608095 63.2768 1.3921 63.2768 2.3521C63.2768 3.1521 63.1008 3.9681 62.7488 4.8001L51.4208 33.6001L50.8928 33.8401L44.5568 13.7281L36.7328 33.6001L36.2048 33.8401L25.5488 9.53674e-05H29.6288L38.2208 28.4161L44.3168 12.9601L40.2368 9.53674e-05H44.3168L52.9088 28.4161L62.1728 4.8001C62.5248 4.0001 62.7008 3.1681 62.7008 2.3041C62.7008 1.4401 62.4608 0.768097 61.9808 0.288097L62.3648 9.53674e-05Z" fill="#101318"/>
</svg>
